<?xml version="1.0" standalone="no"?>
<!DOCTYPE svg PUBLIC "-//W3C//DTD SVG 20010904//EN"
 "http://www.w3.org/TR/2001/REC-SVG-20010904/DTD/svg10.dtd">
<svg version="1.0" xmlns="http://www.w3.org/2000/svg"
 width="258.000000pt" height="258.000000pt" viewBox="0 0 258.000000 258.000000"
 preserveAspectRatio="xMidYMid meet">
<metadata>
Created by potrace 1.11, written by Peter Selinger 2001-2013
</metadata>
<g transform="translate(0.000000,258.000000) scale(0.100000,-0.100000)"
fill="#000000" stroke="none">
<path d="M1180 2335 l0 -55 50 0 50 0 0 55 0 55 -50 0 -50 0 0 -55z"/>
<path d="M1095 2264 c-172 -19 -389 -101 -548 -208 -197 -132 -330 -306 -396
-516 -18 -58 -35 -112 -38 -120 -13 -35 -20 -90 -11 -90 5 0 4 -9 -2 -20 -8
-15 -21 -20 -55 -20 l-45 0 0 -40 0 -40 45 -1 c59 -2 62 -2 72 -13 5 -5 3 -6
-5 -2 -8 5 -12 0 -12 -13 0 -12 4 -21 9 -21 8 0 21 -56 24 -107 1 -11 5 -19 9
-17 11 7 29 -61 22 -81 -5 -12 -4 -16 3 -12 13 8 26 -20 16 -35 -3 -6 -1 -8 4
-5 13 8 26 -20 16 -35 -3 -7 -1 -8 5 -4 14 8 46 -50 36 -66 -4 -6 -3 -8 3 -5
13 8 35 -16 31 -34 -2 -7 3 -13 11 -14 8 0 16 -6 19 -14 3 -9 0 -11 -9 -6 -8
5 -11 4 -6 -1 5 -5 14 -9 20 -9 17 -1 8 -35 -13 -54 -11 -9 -82 -70 -159 -136
l-141 -120 0 -112 0 -113 106 0 105 0 162 137 c210 180 202 175 250 151 22
-11 35 -23 31 -30 -4 -6 -3 -8 4 -4 14 9 63 -14 55 -27 -4 -6 -1 -7 6 -3 7 5
26 2 42 -5 23 -9 27 -14 17 -21 -9 -6 -5 -7 10 -3 28 8 85 -13 76 -27 -4 -6 2
-7 16 -3 15 5 20 4 16 -4 -4 -6 0 -11 9 -11 9 0 14 4 11 9 -4 5 3 7 14 4 11
-3 23 -9 25 -14 3 -4 12 -6 20 -2 8 3 15 0 15 -5 0 -6 13 -9 33 -6 17 3 59 -3
92 -13 l60 -19 3 -52 3 -52 50 0 49 0 0 49 0 49 58 6 c31 4 73 7 92 7 25 1 30
3 16 8 -13 5 -3 10 37 17 31 6 54 7 51 2 -6 -10 22 -9 56 2 14 4 18 9 10 10
-9 1 -5 5 9 11 14 5 36 7 50 4 14 -3 33 -1 41 5 8 5 11 10 5 10 -13 0 17 20
30 20 6 0 3 -5 -5 -11 -12 -9 -12 -10 3 -5 10 3 24 6 30 6 8 0 7 4 -2 9 -11 7
-9 10 8 16 11 3 25 3 31 0 5 -3 10 -1 10 4 0 6 28 25 63 42 34 17 84 47 110
66 27 19 55 32 62 29 7 -2 21 5 32 17 l18 22 -25 -20 c-15 -12 -12 -5 9 18 35
37 65 52 40 20 -7 -10 10 4 39 32 50 47 63 63 42 50 -18 -11 -10 9 15 38 23
26 43 37 30 17 -10 -16 1 -11 16 7 12 14 12 16 0 9 -9 -6 -12 -5 -9 5 3 8 11
13 17 11 7 -1 10 2 7 7 -4 5 8 32 25 60 35 56 48 68 24 21 -9 -16 -13 -30 -11
-30 10 0 35 57 29 64 -3 3 2 24 12 46 10 23 21 36 25 30 10 -17 70 195 70 247
0 2 29 3 65 3 l65 0 0 40 0 40 -64 0 -63 0 -7 71 c-8 84 -35 199 -47 199 -5 0
-5 7 -2 17 4 10 2 14 -4 10 -6 -4 -25 28 -46 72 -19 43 -42 85 -51 94 -9 9
-20 25 -24 36 -17 46 -247 271 -278 271 -3 0 -24 13 -47 29 -87 59 -258 127
-397 158 -64 14 -373 25 -455 17z m88 -201 c-18 -7 -16 -74 3 -101 17 -24 62
-30 82 -10 7 7 12 36 12 65 l0 53 48 0 c160 -1 397 -81 537 -182 102 -74 215
-205 260 -304 l24 -52 115 -7 c63 -4 120 -4 127 1 8 4 9 3 5 -4 -4 -7 -23 -12
-42 -12 l-35 0 6 -42 5 -43 -81 -62 c-70 -54 -87 -63 -123 -63 -23 0 -52 -7
-65 -16 -19 -14 -22 -22 -17 -50 6 -27 3 -35 -14 -44 -18 -9 -28 -5 -75 36
-35 30 -60 44 -71 40 -23 -9 -16 -19 61 -85 l70 -59 49 39 49 39 93 0 c52 0
94 -2 94 -5 0 -2 -57 -44 -127 -92 -71 -48 -162 -112 -203 -140 -115 -81 -130
-88 -154 -73 -25 16 -400 287 -473 342 -33 25 -57 37 -65 32 -19 -11 6 21 61
78 38 41 43 49 31 63 -12 15 -29 0 -152 -127 l-138 -143 -59 62 c-44 47 -61
59 -69 51 -22 -22 -12 -42 53 -113 l64 -70 94 93 94 94 104 -77 c101 -73 260
-189 397 -288 37 -26 72 -45 79 -43 7 3 77 49 154 103 78 54 148 103 157 108
8 6 53 36 100 68 46 32 87 56 89 53 3 -3 0 -25 -6 -50 -16 -64 -15 -64 32 -69
23 -2 -15 -4 -84 -5 l-126 -2 -36 -72 c-91 -184 -292 -350 -507 -421 -144 -48
-385 -65 -525 -38 -229 43 -438 162 -571 324 -43 52 -46 61 -35 79 11 17 10
22 -1 29 -7 5 -20 8 -29 6 -9 -3 -20 6 -27 22 -31 72 -53 141 -58 184 -6 40
-4 46 8 42 19 -8 48 20 48 45 0 17 -34 50 -52 50 -4 0 -9 -15 -11 -32 -3 -23
-4 -18 -5 17 -1 50 15 150 17 108 1 -16 5 -21 17 -16 11 4 48 -27 124 -102
l108 -108 114 38 c133 44 151 52 142 67 -4 6 -3 8 3 5 6 -4 18 2 27 12 16 17
9 27 -131 184 -81 91 -151 166 -154 166 -12 2 -234 -190 -237 -204 -2 -8 -7
-15 -12 -15 -14 0 18 98 57 175 117 234 363 407 653 459 77 14 125 18 103 9z
m-435 -633 c61 -71 112 -132 112 -137 0 -5 -52 -26 -116 -47 l-116 -38 -99 98
c-55 54 -99 101 -99 105 0 10 182 149 194 148 6 0 62 -58 124 -129z m1596 -72
c14 -52 9 -58 -44 -58 -27 0 -50 5 -50 10 0 6 3 10 8 10 4 0 21 13 37 29 37
36 41 37 49 9z m47 -365 c-12 -20 -14 -14 -5 12 4 9 9 14 11 11 3 -2 0 -13 -6
-23z m-201 -326 c0 -2 -13 -16 -30 -32 -16 -16 -30 -25 -30 -21 0 4 12 18 26
31 25 24 34 29 34 22z"/>
<path d="M1711 1783 c-40 -43 -125 -131 -189 -195 -99 -101 -113 -119 -102
-133 11 -14 37 9 200 177 l187 192 89 -38 c124 -53 122 -52 91 -18 -29 31
-121 77 -174 88 -26 5 -36 -2 -102 -73z"/>
<path d="M1608 1388 c-43 -55 -54 -76 -46 -86 13 -15 42 9 80 64 13 19 28 34
33 34 6 0 38 -23 70 -50 56 -47 90 -60 90 -33 0 12 -148 143 -162 143 -4 0
-34 -32 -65 -72z"/>
<path d="M1083 1362 c-40 -17 -87 -51 -79 -59 2 -2 31 6 64 17 l61 21 41 -27
c31 -20 44 -24 52 -16 7 7 10 13 7 15 -19 17 -93 67 -98 66 -3 0 -25 -8 -48
-17z"/>
<path d="M1478 1220 c-32 -44 -33 -46 -13 -54 9 -3 25 8 41 30 23 30 25 37 13
49 -12 12 -18 8 -41 -25z"/>
<path d="M1345 1053 c-27 -37 -96 -124 -151 -195 l-101 -128 -89 71 c-49 40
-124 101 -168 137 -75 63 -79 65 -93 47 -12 -18 -11 -22 11 -38 13 -9 91 -72
173 -139 81 -66 153 -125 159 -130 10 -8 34 21 293 354 44 56 52 71 40 79 -21
13 -20 14 -74 -58z"/>
<path d="M563 1064 c-57 -49 -62 -58 -37 -68 9 -4 30 6 52 24 43 35 53 37 77
10 22 -25 31 -25 40 -2 5 12 -4 26 -31 50 -20 17 -40 32 -43 32 -3 0 -30 -21
-58 -46z"/>
<path d="M1190 545 c-17 -20 -14 -22 43 -30 37 -6 47 -4 47 7 0 36 -65 53 -90
23z"/>
<path d="M2365 929 c-4 -6 -5 -12 -2 -15 2 -3 7 2 10 11 7 17 1 20 -8 4z"/>
<path d="M2019 513 c-13 -16 -12 -17 4 -4 16 13 21 21 13 21 -2 0 -10 -8 -17
-17z"/>
<path d="M1927 461 c-60 -36 -74 -50 -22 -23 39 20 85 52 75 51 -3 0 -26 -13
-53 -28z"/>
<path d="M1033 303 c9 -2 23 -2 30 0 6 3 -1 5 -18 5 -16 0 -22 -2 -12 -5z"/>
<path d="M1498 303 c7 -3 16 -2 19 1 4 3 -2 6 -13 5 -11 0 -14 -3 -6 -6z"/>
</g>
</svg>
